<?xml version="1.0" standalone="no"?>
<!DOCTYPE svg PUBLIC "-//W3C//DTD SVG 20010904//EN"
 "http://www.w3.org/TR/2001/REC-SVG-20010904/DTD/svg10.dtd">
<svg version="1.0" xmlns="http://www.w3.org/2000/svg"
 width="431.000000pt" height="431.000000pt" viewBox="0 0 431.000000 431.000000"
 preserveAspectRatio="xMidYMid meet">
<metadata>
Created by potrace 1.14, written by Peter Selinger 2001-2017
</metadata>
<g transform="translate(0.000000,431.000000) scale(0.100000,-0.100000)"
fill="#000000" stroke="none">
<path d="M2110 3972 c0 -4 15 -16 33 -27 17 -10 134 -122 260 -248 189 -191
227 -234 227 -257 0 -16 -4 -32 -10 -35 -9 -6 -32 -51 -43 -86 -3 -9 -1 -21 4
-26 10 -10 -6 -127 -22 -155 -5 -10 -9 -44 -9 -77 0 -41 -4 -60 -14 -64 -8 -3
-14 -22 -14 -52 -2 -58 -11 -74 -28 -50 -8 10 -17 16 -20 12 -4 -4 -14 2 -21
13 -20 28 -36 14 -29 -24 5 -27 2 -34 -31 -56 -20 -14 -43 -31 -50 -39 -11
-10 -17 -11 -26 -2 -20 20 -40 13 -34 -12 10 -37 -5 -50 -37 -33 l-28 14 23
13 24 12 -23 10 c-12 6 -22 16 -22 24 0 16 -12 17 -28 1 -20 -20 -25 -1 -5 19
10 11 34 38 53 62 21 25 40 39 48 36 10 -4 13 0 9 14 -5 22 16 46 32 37 5 -4
12 -2 16 4 4 6 11 8 16 5 5 -3 6 1 3 9 -10 26 -35 27 -54 4 -10 -13 -30 -36
-45 -53 -15 -16 -45 -55 -68 -85 -23 -30 -45 -56 -49 -58 -15 -7 -98 -134 -93
-142 10 -17 -7 -41 -26 -35 -12 4 -21 -1 -29 -14 -6 -12 -21 -23 -35 -27 -13
-3 -26 -12 -29 -20 -8 -21 -30 -17 -54 11 -12 14 -22 28 -22 31 0 3 -30 48
-67 101 -38 52 -72 102 -78 111 -5 8 -41 64 -80 123 -38 58 -92 143 -120 188
-27 44 -69 107 -93 139 -23 31 -52 76 -63 100 -12 24 -22 42 -24 40 -1 -2 6
-64 15 -138 10 -74 25 -191 34 -260 9 -69 20 -153 26 -186 5 -34 10 -77 10
-97 0 -48 19 -87 41 -87 18 0 97 -17 129 -28 20 -7 35 -9 110 -20 36 -6 78
-15 93 -21 16 -6 39 -11 52 -11 35 0 43 -21 15 -39 -26 -17 -120 -59 -220 -97
-36 -14 -119 -48 -185 -75 -66 -28 -158 -66 -205 -85 -92 -38 -116 -48 -200
-86 -122 -56 -136 -62 -152 -60 -10 0 -18 -6 -18 -14 0 -8 -8 -17 -17 -21 -10
-3 -32 -20 -49 -37 -31 -32 -74 -70 -159 -141 -115 -97 -151 -128 -160 -139
-5 -6 -25 -22 -42 -35 -53 -37 -38 -43 22 -8 30 18 55 38 55 45 0 6 4 12 9 12
5 0 7 -10 5 -22 -2 -13 1 -8 8 10 6 17 15 32 19 32 5 0 9 6 9 13 0 7 9 18 21
25 19 12 19 11 9 -8 -9 -17 -8 -20 10 -20 14 0 20 7 20 23 0 20 5 24 32 25 18
0 36 -5 40 -11 12 -19 32 8 23 30 -10 23 -6 46 8 55 7 4 8 8 3 8 -5 0 -3 6 4
14 6 8 18 12 26 9 10 -4 15 0 13 8 -3 22 12 49 27 49 8 0 20 12 26 28 10 24
12 25 16 7 4 -18 -1 -55 -29 -215 -6 -36 -17 -103 -23 -150 -7 -52 -15 -80
-20 -72 -4 7 -15 11 -23 8 -8 -3 -23 -1 -33 4 -11 6 -50 12 -87 15 -37 2 -81
7 -98 10 -27 6 -28 5 -10 -7 24 -15 100 -37 133 -38 15 0 22 -6 22 -19 0 -21
27 -36 33 -18 3 9 8 8 21 -3 17 -13 17 -15 -4 -32 l-22 -18 21 -43 c12 -24 21
-48 21 -54 0 -6 7 -17 16 -24 11 -9 14 -23 11 -46 -7 -43 -1 -42 18 3 14 35
11 117 -5 139 -4 6 -5 28 -1 50 6 37 8 31 26 -67 10 -60 22 -108 26 -108 3 0
9 -13 12 -29 3 -16 9 -40 12 -54 5 -19 2 -26 -12 -30 -16 -4 -16 -6 4 -12 16
-5 22 -17 25 -45 2 -21 0 -36 -4 -34 -5 3 -8 -2 -8 -10 0 -9 -5 -16 -11 -16
-5 0 -7 -4 -4 -10 9 -15 25 -12 25 6 0 8 5 12 11 8 6 -3 8 -17 4 -31 -4 -19
-1 -29 15 -40 15 -11 20 -22 16 -38 -4 -14 0 -28 9 -35 8 -7 15 -22 15 -34 -1
-17 -11 -10 -55 38 -29 33 -59 71 -67 85 -7 14 -16 28 -19 31 -10 8 -141 170
-194 240 -27 36 -67 86 -89 111 -23 26 -56 64 -74 85 l-32 39 18 -35 c11 -19
29 -51 40 -70 12 -19 22 -40 22 -47 0 -7 13 -32 28 -55 29 -43 78 -124 113
-185 10 -18 33 -55 51 -82 18 -27 43 -67 55 -88 13 -21 45 -76 73 -122 27 -46
50 -86 50 -88 0 -2 19 -33 43 -68 23 -35 58 -89 77 -119 19 -30 37 -53 40 -51
3 2 1 42 -4 90 -8 75 -7 88 7 103 13 13 20 13 29 4 7 -7 24 -12 40 -12 25 0
45 -6 108 -33 43 -19 46 -19 22 0 -64 51 -96 73 -106 73 -6 0 -31 18 -55 40
-25 23 -54 40 -67 40 -13 0 -24 5 -24 10 0 14 88 16 310 6 47 -2 153 -4 236
-5 l151 -1 18 -46 c9 -25 31 -66 49 -92 17 -26 45 -74 61 -107 17 -33 33 -62
36 -65 4 -3 19 -32 34 -65 16 -33 37 -73 48 -90 l19 -30 -7 30 c-9 40 -64 154
-91 187 -11 14 -27 53 -35 87 -7 34 -17 61 -22 61 -4 0 -5 5 -2 10 3 6 -3 23
-14 39 -11 15 -18 31 -14 34 3 4 0 14 -7 22 -10 12 -10 19 -2 27 7 7 12 31 12
54 0 25 6 49 15 58 8 8 18 28 21 45 4 16 15 38 25 47 11 9 19 25 19 35 0 10
10 27 22 39 12 11 18 20 14 20 -4 0 4 12 18 27 14 15 28 24 31 21 9 -9 33
-209 45 -373 6 -82 15 -190 21 -240 15 -129 23 -339 12 -332 -5 3 -19 26 -32
52 -13 25 -26 44 -29 40 -3 -3 9 -36 27 -74 l33 -68 111 29 c61 15 123 28 137
28 15 0 42 5 61 12 33 12 33 12 9 18 -16 4 -6 7 30 7 30 1 82 9 115 18 33 10
72 19 86 20 14 2 36 8 48 14 12 7 25 10 29 8 9 -6 97 8 327 51 61 12 127 24
148 27 39 6 42 25 4 25 -12 0 -33 9 -47 20 -14 11 -28 20 -32 20 -4 0 -32 11
-62 25 -30 14 -61 25 -68 25 -7 0 -22 8 -33 18 -11 9 -18 16 -16 15 2 -2 11 3
19 9 11 10 17 9 27 -5 14 -19 40 -23 50 -7 3 6 14 10 25 10 10 0 21 7 24 16
10 25 7 102 -4 109 -5 3 -10 19 -10 36 0 16 -1 29 -3 29 -7 0 -92 -43 -97 -49
-3 -3 -27 -17 -53 -31 -66 -34 -94 -65 -78 -84 10 -12 7 -15 -21 -14 -43 1
-63 -5 -85 -23 -10 -8 -34 -23 -53 -33 -19 -11 -52 -31 -74 -45 -117 -78 -158
-104 -231 -148 -110 -66 -114 -69 -165 -93 -89 -43 -126 -45 -95 -4 8 10 15
32 15 47 0 15 6 30 14 33 8 3 22 29 31 57 9 29 29 79 45 112 16 33 35 78 43
100 8 22 29 72 45 112 17 39 32 82 34 95 l3 23 155 -3 c85 -2 231 -9 325 -17
191 -17 245 -18 245 -7 0 4 -21 12 -47 19 -27 6 -57 15 -67 19 -16 6 -18 4
-13 -10 4 -11 3 -15 -4 -11 -6 4 -8 13 -5 20 3 9 -11 19 -42 30 -26 9 -55 21
-64 26 -10 5 -25 9 -33 9 -8 0 -23 4 -33 10 -9 5 -71 31 -137 56 -66 26 -125
50 -131 55 -6 5 -42 20 -79 34 -38 15 -88 35 -112 46 -23 10 -47 19 -53 19 -5
0 -18 4 -28 9 -9 5 -35 17 -57 26 -45 19 -87 37 -127 55 -22 11 -30 11 -43 0
-13 -11 -14 -10 -9 3 5 14 -20 37 -135 121 -76 56 -151 114 -187 145 -82 72
-124 107 -166 138 -24 18 -92 72 -153 119 -60 47 -118 90 -127 95 -10 5 -28
19 -41 32 -13 12 -46 40 -72 62 -68 57 -115 104 -115 115 0 12 47 6 170 -22
171 -38 489 -98 518 -98 32 0 82 -30 82 -50 0 -9 9 -34 19 -56 11 -22 23 -54
28 -70 l7 -29 6 35 c4 22 1 41 -7 51 -8 9 -14 33 -15 53 -1 23 -6 36 -15 36
-15 0 -18 47 -4 68 6 10 10 8 14 -8 9 -37 32 -18 29 23 -4 47 18 187 29 187 5
0 9 7 9 15 0 8 5 15 10 15 6 0 10 13 10 29 0 17 5 33 11 37 6 3 19 25 29 49
10 24 23 46 29 49 6 4 11 17 11 30 0 21 17 46 31 46 9 0 21 -45 25 -90 2 -19
6 -208 9 -420 4 -212 8 -387 11 -389 2 -2 4 30 4 73 0 49 4 75 10 71 6 -3 10
-29 10 -58 0 -47 1 -49 15 -31 13 18 14 17 15 -19 0 -24 -5 -40 -15 -43 -10
-4 -15 -21 -15 -53 0 -26 -3 -51 -7 -55 -5 -4 -8 -27 -9 -49 0 -23 -4 -54 -8
-69 -5 -19 -4 -28 3 -28 6 0 11 14 11 30 0 17 5 30 10 30 6 0 10 7 10 15 0 8
4 15 9 15 5 0 14 15 21 33 12 30 145 309 177 372 9 17 24 40 35 51 10 12 18
25 16 31 -2 5 3 25 11 45 l14 36 106 12 c58 7 126 14 151 16 25 2 68 8 95 13
28 5 91 10 141 11 49 1 108 5 130 10 21 5 50 9 64 9 l25 0 -26 -22 c-87 -73
-136 -112 -274 -216 -60 -45 -199 -142 -226 -157 -11 -6 -30 -20 -42 -31 -12
-11 -64 -48 -116 -83 -85 -56 -259 -185 -271 -201 -3 -3 -24 -14 -47 -24 -47
-21 -56 -34 -20 -30 20 3 144 37 307 85 36 11 82 21 102 22 21 2 40 9 43 16 2
6 14 12 25 12 12 0 30 5 40 10 20 10 60 -5 60 -22 0 -15 40 -48 65 -54 24 -6
30 -22 27 -73 0 -8 6 -20 13 -27 7 -8 11 -23 8 -34 -6 -23 24 -40 37 -20 5 8
11 1 19 -22 8 -23 20 -37 41 -45 22 -8 32 -20 36 -42 4 -17 11 -34 17 -38 6
-4 8 4 5 21 -6 32 4 34 26 3 16 -22 16 -22 6 5 -5 15 -20 44 -33 65 -13 21
-27 48 -31 61 -4 12 -18 35 -31 51 -14 16 -34 49 -44 75 -11 25 -24 46 -28 46
-4 0 -13 10 -19 23 -6 12 -19 36 -29 53 l-18 30 44 60 c24 32 49 66 54 75 6 9
31 45 57 80 110 148 143 194 147 203 2 5 10 16 17 25 7 9 27 35 44 59 30 42
60 56 60 27 0 -8 -4 -15 -9 -15 -4 0 -5 -18 -1 -40 4 -22 4 -40 0 -40 -4 0 -6
-28 -5 -62 3 -83 4 -85 15 -68 6 10 9 -26 8 -110 l-2 -125 -6 105 -6 105 -2
-121 c-1 -82 2 -124 10 -132 26 -26 31 -11 24 75 -5 73 -4 89 10 105 10 11 12
18 6 18 -7 0 -12 9 -12 20 0 18 11 25 33 21 5 -1 6 2 4 6 -3 5 1 14 9 20 15
15 29 0 18 -19 -4 -7 -3 -8 5 -4 12 8 15 1 26 -48 5 -26 4 -28 -9 -17 -9 8
-16 20 -16 27 0 18 -8 18 -26 -1 -13 -12 -12 -17 6 -35 11 -11 20 -29 20 -40
0 -27 14 -25 27 3 10 21 12 19 33 -27 l22 -49 -20 -46 c-12 -25 -24 -70 -27
-98 -4 -29 -11 -55 -16 -59 -5 -3 -9 -12 -9 -20 0 -8 -8 -26 -17 -41 -10 -14
-18 -32 -19 -40 -17 -111 -32 -175 -61 -263 -49 -141 -54 -167 -37 -174 8 -3
14 -14 14 -24 0 -11 7 -25 15 -32 8 -7 15 -19 15 -27 0 -17 64 -137 92 -173
l19 -25 -6 90 c-3 50 -8 98 -11 108 -3 10 0 24 6 32 10 12 10 18 0 30 -13 16
-9 35 31 122 13 29 30 53 38 53 23 0 4 -203 -35 -380 -28 -128 -13 -133 49
-17 24 45 70 125 101 177 32 52 61 102 65 110 6 15 54 91 112 178 16 23 29 45
29 47 0 7 110 197 171 296 27 44 49 82 49 85 0 2 -13 4 -30 4 -19 0 -30 -5
-30 -14 0 -7 -18 -25 -40 -40 -22 -14 -40 -31 -40 -36 0 -6 -6 -10 -12 -11 -7
0 -31 -22 -53 -49 -22 -27 -44 -49 -50 -49 -9 -1 -76 -61 -175 -155 -19 -19
-45 -37 -57 -40 -13 -4 -26 -18 -29 -32 -5 -19 -12 -24 -25 -21 -18 5 -41 -15
-51 -43 -3 -9 -18 -22 -34 -30 -16 -8 -33 -21 -37 -27 -11 -18 -37 -16 -37 2
0 8 5 15 10 15 6 0 10 11 10 25 0 14 5 25 10 25 6 0 10 5 10 12 0 24 42 98 56
98 9 0 14 12 14 36 0 19 7 42 15 50 8 9 15 34 15 57 0 75 1 80 11 99 5 10 16
18 24 18 8 0 15 8 15 17 0 9 7 24 15 33 23 26 8 60 -27 60 -19 0 -28 4 -25 13
2 6 14 12 26 11 15 0 21 5 21 22 l0 23 265 -2 c146 -1 265 -4 265 -6 0 -3 -7
-13 -17 -23 -9 -10 -12 -18 -7 -18 5 0 18 13 27 30 17 28 17 31 -3 67 -37 68
-100 165 -138 212 -39 48 -105 137 -134 181 -61 93 -126 131 -162 95 -8 -8
-22 -12 -30 -9 -9 3 -16 1 -16 -5 0 -6 7 -11 15 -11 9 0 15 -9 15 -21 0 -24
51 -79 75 -79 8 0 18 -7 21 -15 4 -8 15 -15 25 -15 12 0 19 -7 19 -20 0 -15 7
-20 25 -20 15 0 40 -14 62 -35 23 -21 31 -35 22 -35 -8 0 -20 5 -27 12 -18 18
-25 3 -10 -21 7 -12 21 -21 31 -21 9 0 23 -11 29 -25 9 -19 14 -22 24 -14 11
9 15 7 20 -5 4 -9 4 -19 2 -22 -7 -6 38 -52 85 -87 34 -26 51 -67 27 -67 -5 0
-10 6 -10 13 0 6 -15 21 -32 32 -18 11 -42 27 -54 35 -12 8 -43 28 -70 45 -85
52 -208 129 -234 148 -44 31 -272 175 -304 193 -38 20 -27 32 41 44 37 6 79
15 93 20 14 5 71 16 127 26 91 16 102 20 108 41 3 13 10 23 15 23 6 0 10 11
10 25 0 14 23 75 50 135 28 60 50 118 50 128 0 10 3 22 7 26 8 7 31 85 37 123
3 12 12 45 21 73 9 27 15 54 13 59 -4 14 -42 -19 -75 -66 -34 -48 -251 -301
-308 -358 -22 -23 -64 -70 -94 -105 -143 -170 -140 -169 -231 -127 -25 11 -67
30 -95 43 -27 12 -75 33 -105 45 -30 12 -102 42 -160 66 -58 25 -125 51 -150
59 -25 8 -60 21 -77 29 -82 38 -186 81 -273 113 -25 10 -56 25 -70 35 -13 9
-30 17 -36 17 -6 0 -17 6 -23 14 -14 16 -2 27 33 32 43 5 143 23 211 39 39 8
111 22 160 31 50 8 108 18 130 22 l40 7 7 58 c4 31 12 66 18 77 6 11 10 32 9
47 0 15 7 75 16 133 9 58 22 147 28 199 8 57 17 96 25 99 20 6 13 22 -10 23
l-23 0 23 11 c12 6 21 18 20 26 -2 8 3 17 10 19 6 3 12 -3 12 -12 0 -10 14
-47 32 -83 17 -37 32 -82 34 -101 1 -19 6 -37 11 -40 4 -3 9 -15 10 -26 1 -11
6 -36 12 -55 6 -19 19 -71 30 -114 11 -44 24 -82 29 -85 5 -3 12 -13 15 -21 3
-9 6 -5 6 11 2 43 31 32 31 -11 0 -47 23 -71 39 -41 14 26 14 31 -3 25 -9 -3
-17 10 -26 43 -18 65 -19 67 -40 48 -16 -15 -18 -15 -24 0 -9 23 -8 25 9 25
19 0 32 49 15 60 -13 8 -10 55 4 55 5 0 15 -22 24 -48 10 -31 18 -44 23 -35 4
7 3 15 -3 19 -6 4 -9 12 -6 19 5 15 47 -68 45 -90 0 -3 5 -14 11 -26 8 -16 8
-24 -1 -34 -10 -10 -8 -11 9 -6 27 8 60 -34 41 -53 -8 -8 -7 -11 5 -11 27 0
31 -17 29 -124 -4 -337 -4 -484 3 -495 11 -16 36 17 28 37 -3 8 4 33 15 56 51
103 55 115 48 136 -8 25 12 70 31 70 6 0 14 9 17 20 3 11 12 20 21 20 22 0 20
17 -3 25 -18 6 -18 8 6 50 13 25 29 45 34 45 5 0 9 5 9 10 0 6 -7 10 -16 10
-22 0 -49 67 -33 86 9 11 8 14 -2 15 -8 0 -3 5 11 11 14 6 29 10 33 9 5 -1 27
4 50 10 23 7 71 15 107 19 36 4 94 13 130 20 59 11 103 18 123 19 23 2 -1 25
-55 51 -35 16 -90 46 -123 65 -33 19 -71 41 -85 47 -14 7 -57 34 -97 60 -39
27 -74 48 -78 48 -4 0 -19 8 -33 18 -15 11 -58 36 -97 57 -94 50 -178 101
-245 145 -30 21 -59 39 -65 41 -22 9 -85 54 -85 62 0 11 48 -2 105 -28 80 -38
248 -106 275 -112 14 -3 31 -10 38 -16 10 -8 16 -7 22 2 6 11 9 10 16 -2 8
-14 11 -14 29 -1 19 14 19 15 -3 20 -24 7 -30 24 -8 24 18 0 29 16 21 30 -4 7
-13 6 -27 -1 -19 -10 -20 -9 -13 7 4 11 10 33 13 49 3 17 8 32 12 35 4 3 12
37 18 75 6 39 15 93 20 120 11 58 9 64 -15 42 -10 -8 -30 -18 -44 -22 -15 -4
-36 -17 -48 -31 -11 -13 -27 -21 -35 -18 -8 3 -33 -4 -57 -15 -23 -12 -48 -21
-55 -21 -7 0 -63 -25 -126 -55 -62 -30 -122 -56 -133 -57 -22 -3 -22 -4 -7
102 6 43 6 69 -1 78 -12 15 -93 70 -121 83 -12 5 -30 15 -41 21 -103 66 -134
85 -158 97 -15 8 -27 18 -27 23 0 4 -5 8 -11 8 -7 0 -49 25 -95 55 -86 57 -94
61 -94 47z m624 -712 c18 -36 5 -40 -18 -5 -18 28 -20 35 -7 35 5 0 16 -13 25
-30z m51 -101 c4 -6 4 -26 0 -45 -5 -30 -8 -34 -21 -23 -9 7 -14 23 -11 36 2
13 0 23 -4 23 -5 0 -9 9 -9 20 0 17 3 19 19 10 11 -5 23 -15 26 -21z m30 -95
c-30 -16 -37 -7 -19 28 l16 31 12 -24 c10 -21 9 -25 -9 -35z m-315 -201 c0 -5
-4 -15 -10 -23 -11 -18 -25 -7 -17 15 6 15 27 21 27 8z m-60 -66 c0 -16 -35
-1 -38 16 -3 16 -1 17 17 5 12 -7 21 -17 21 -21z m-229 9 c6 -11 7 -86 1 -86
-5 0 -12 -9 -15 -20 -4 -17 -13 -19 -59 -18 -29 1 -46 3 -36 5 21 5 31 32 18
48 -8 9 -8 15 0 20 5 3 10 1 10 -4 0 -16 27 -13 34 4 3 8 -1 21 -9 29 -8 7
-12 16 -9 19 5 4 62 7 65 3z m934 -66 c3 -5 -1 -10 -9 -10 -9 0 -16 5 -16 10
0 6 4 10 9 10 6 0 13 -4 16 -10z m-40 -30 c3 -5 1 -10 -4 -10 -6 0 -11 5 -11
10 0 6 2 10 4 10 3 0 8 -4 11 -10z m-1134 -266 c9 -26 3 -71 -9 -59 -7 7 -12
85 -6 85 3 0 9 -12 15 -26z m39 -53 c0 -5 6 -16 13 -23 32 -33 97 -121 97
-132 0 -7 11 -23 25 -36 14 -13 25 -29 25 -35 0 -7 11 -29 25 -49 14 -20 25
-43 25 -51 0 -8 7 -15 15 -15 17 0 18 -2 9 -24 -9 -24 -29 -19 -44 9 -9 18
-16 22 -21 13 -4 -7 -6 -16 -3 -20 3 -4 0 -16 -5 -27 -8 -14 -7 -22 4 -31 19
-16 19 -30 0 -30 -8 0 -15 -7 -15 -16 0 -9 -6 -14 -12 -11 -19 7 -60 -11 -53
-24 4 -6 19 -7 36 -4 25 6 29 4 29 -14 0 -23 -10 -27 -27 -10 -16 16 -35 1
-31 -23 2 -12 -2 -23 -9 -25 -16 -6 -27 39 -19 73 6 21 3 27 -14 31 -19 5 -20
10 -14 67 4 33 10 68 15 77 5 9 6 18 4 21 -2 2 -9 37 -16 78 -6 41 -16 80 -21
87 -5 7 -7 17 -3 23 10 16 -15 80 -31 80 -15 0 -17 9 -8 34 7 17 24 22 24 7z
m-1085 -362 c4 -11 21 -34 39 -52 17 -17 45 -52 61 -77 17 -25 32 -47 35 -50
25 -22 120 -162 116 -169 -3 -5 1 -11 9 -14 7 -3 17 -23 21 -44 4 -21 9 -32
11 -25 6 16 23 16 23 -1 0 -6 14 -25 30 -40 17 -16 30 -33 30 -38 0 -8 -44
-93 -111 -214 -46 -84 -109 -214 -109 -225 0 -6 5 -8 10 -5 6 3 10 15 10 25 0
10 8 21 18 24 10 4 29 24 43 47 13 22 30 47 37 55 7 7 10 19 7 25 -4 6 3 13
15 16 12 3 19 11 16 18 -2 7 2 21 9 32 8 10 15 26 15 36 0 10 9 27 20 39 11
12 20 34 20 50 0 18 5 28 15 28 8 0 15 4 15 9 0 17 31 21 53 7 12 -7 67 -28
122 -46 55 -18 118 -41 140 -50 22 -10 56 -23 75 -29 112 -34 137 -43 155 -57
l20 -15 -20 -12 c-27 -15 -397 -161 -545 -215 -30 -11 -93 -34 -140 -52 -47
-17 -110 -38 -140 -45 -64 -17 -71 -11 -69 50 1 37 -4 104 -32 420 -6 66 -15
190 -20 275 -14 230 -23 324 -32 337 -6 9 -3 11 7 7 8 -3 18 -15 21 -25z m745
-19 c0 -5 -2 -10 -4 -10 -3 0 -8 5 -11 10 -3 6 -1 10 4 10 6 0 11 -4 11 -10z
m329 -167 c9 -6 12 -15 8 -20 -11 -11 -49 36 -40 50 4 7 8 6 11 -3 3 -8 12
-20 21 -27z m111 -75 c0 -13 -23 -5 -28 10 -2 7 2 10 12 6 9 -3 16 -11 16 -16z
m-70 -68 c0 -5 -2 -10 -4 -10 -3 0 -8 5 -11 10 -3 6 -1 10 4 10 6 0 11 -4 11
-10z m1654 -56 c3 -8 2 -12 -4 -9 -6 3 -10 10 -10 16 0 14 7 11 14 -7z m-994
-384 c0 -5 -5 -10 -11 -10 -5 0 -7 5 -4 10 3 6 8 10 11 10 2 0 4 -4 4 -10z
m-639 -43 c-13 -13 -26 -3 -16 12 3 6 11 8 17 5 6 -4 6 -10 -1 -17z m19 -17
c0 -5 -4 -10 -10 -10 -5 0 -10 5 -10 10 0 6 5 10 10 10 6 0 10 -4 10 -10z m95
-49 c3 -5 1 -12 -5 -16 -5 -3 -10 1 -10 9 0 18 6 21 15 7z m1185 -86 c0 -8 -4
-15 -10 -15 -5 0 -10 7 -10 15 0 8 5 15 10 15 6 0 10 -7 10 -15z m-1120 -5 c0
-5 -5 -10 -11 -10 -5 0 -7 5 -4 10 3 6 8 10 11 10 2 0 4 -4 4 -10z m228 -101
c-12 -8 -48 0 -48 10 0 16 12 18 35 7 13 -6 19 -14 13 -17z m234 -24 c0 -5 -5
-11 -11 -13 -6 -2 -11 4 -11 13 0 9 5 15 11 13 6 -2 11 -8 11 -13z m68 -9 c0
-8 -4 -17 -9 -21 -12 -7 -24 12 -16 25 9 15 25 12 25 -4z m41 -11 c1 -17 -18
-17 -25 0 -4 11 -1 15 10 13 8 -2 15 -7 15 -13z m-571 -30 c0 -15 -7 -28 -17
-32 -10 -3 -26 -13 -36 -21 -9 -8 -20 -12 -24 -8 -4 4 8 20 26 35 19 16 30 34
27 40 -4 6 0 11 8 11 10 0 16 -9 16 -25z m890 -105 c0 -5 -2 -10 -4 -10 -3 0
-8 5 -11 10 -3 6 -1 10 4 10 6 0 11 -4 11 -10z m-210 -40 c0 -5 -4 -10 -10
-10 -5 0 -10 5 -10 10 0 6 5 10 10 10 6 0 10 -4 10 -10z"/>
<path d="M2157 2723 c-12 -11 -8 -23 8 -23 8 0 15 7 15 15 0 16 -12 20 -23 8z"/>
<path d="M2070 2115 c0 -24 5 -35 15 -35 10 0 15 11 15 35 0 24 -5 35 -15 35
-10 0 -15 -11 -15 -35z"/>
<path d="M2150 2080 c0 -5 7 -10 15 -10 8 0 15 5 15 10 0 6 -7 10 -15 10 -8 0
-15 -4 -15 -10z"/>
<path d="M2086 1995 c-3 -9 -6 -17 -6 -18 0 -1 16 -2 35 -2 21 0 35 5 35 13 0
6 -6 12 -14 12 -8 0 -21 3 -29 6 -8 3 -17 -2 -21 -11z"/>
<path d="M2031 3937 c-6 -8 -8 -17 -4 -20 3 -4 -3 -7 -15 -7 -13 0 -22 -6 -22
-15 0 -12 5 -11 29 3 17 9 32 25 35 34 5 21 -7 24 -23 5z"/>
<path d="M1956 3874 c-9 -8 -20 -13 -25 -10 -4 3 -17 -4 -27 -16 -11 -12 -14
-18 -7 -15 6 4 17 -1 23 -10 10 -15 11 -15 6 -1 -3 10 2 18 14 21 10 2 23 14
29 26 14 25 8 27 -13 5z"/>
<path d="M1870 3810 c0 -5 5 -10 11 -10 5 0 7 5 4 10 -3 6 -8 10 -11 10 -2 0
-4 -4 -4 -10z"/>
<path d="M1827 3794 c-21 -22 53 -34 83 -14 11 7 6 8 -17 4 -22 -4 -33 -3 -33
5 0 12 -23 15 -33 5z"/>
<path d="M1786 3754 c-3 -8 -10 -12 -16 -9 -5 3 -10 1 -10 -4 0 -6 5 -11 10
-11 19 0 10 -17 -15 -28 -28 -13 -34 -32 -10 -32 8 0 15 -4 15 -10 0 -21 28
-9 34 16 5 19 11 24 25 19 10 -3 28 -2 41 3 22 8 22 9 -8 21 -16 7 -32 21 -35
32 -6 23 -23 25 -31 3z"/>
<path d="M1896 3750 c-15 -5 -16 -9 -7 -14 7 -5 18 -3 24 3 14 14 6 20 -17 11z"/>
<path d="M1680 3690 l-23 -20 26 0 c20 0 27 5 27 20 0 11 -2 20 -3 20 -2 0
-14 -9 -27 -20z"/>
<path d="M2733 3663 c9 -2 23 -2 30 0 6 3 -1 5 -18 5 -16 0 -22 -2 -12 -5z"/>
<path d="M1610 3641 c-45 -25 -90 -72 -72 -78 6 -3 12 -13 12 -24 0 -10 7 -19
15 -19 8 0 15 6 15 14 0 9 7 12 20 9 14 -4 20 0 20 10 0 9 9 19 20 22 11 4 20
15 20 27 0 19 -1 20 -25 4 -30 -20 -35 -20 -35 -1 0 8 7 15 15 15 8 0 19 9 25
20 13 24 14 24 -30 1z"/>
<path d="M1715 3640 c4 -6 11 -8 16 -5 14 9 11 15 -7 15 -8 0 -12 -5 -9 -10z"/>
<path d="M1670 3625 c0 -9 5 -15 11 -13 6 2 11 8 11 13 0 5 -5 11 -11 13 -6 2
-11 -4 -11 -13z"/>
<path d="M1674 3563 c2 -19 -2 -30 -13 -35 -13 -5 -12 -7 5 -7 23 -1 51 25 41
36 -4 3 -2 12 4 20 9 10 6 13 -14 13 -22 0 -25 -4 -23 -27z"/>
<path d="M1435 3524 c-44 -31 -47 -34 -20 -29 49 11 57 14 50 25 -4 6 7 13 24
16 17 4 28 10 25 15 -9 15 -27 9 -79 -27z"/>
<path d="M1755 3550 c4 -6 11 -8 16 -5 14 9 11 15 -7 15 -8 0 -12 -5 -9 -10z"/>
<path d="M1598 3523 c7 -3 16 -2 19 1 4 3 -2 6 -13 5 -11 0 -14 -3 -6 -6z"/>
<path d="M3402 3363 c39 -76 98 -190 131 -253 33 -63 74 -141 90 -173 16 -32
31 -56 34 -53 6 6 -46 139 -58 146 -5 3 -22 37 -39 75 -59 131 -91 193 -105
205 -8 7 -15 19 -15 26 0 8 -4 14 -8 14 -5 0 -17 19 -27 43 -21 49 -57 107
-66 107 -4 0 25 -62 63 -137z"/>
<path d="M1258 3412 c-21 -13 -38 -29 -38 -33 0 -5 -6 -9 -12 -9 -7 -1 -26
-12 -43 -26 -16 -15 -24 -23 -17 -20 6 4 12 3 12 -3 0 -5 -6 -11 -12 -14 -10
-3 -10 -9 0 -26 18 -31 15 -46 -13 -61 -15 -8 -25 -22 -25 -36 0 -13 -4 -26
-10 -29 -5 -3 -10 -14 -10 -24 0 -10 -10 -31 -22 -46 -15 -20 -18 -30 -10 -33
7 -2 12 -11 12 -20 1 -11 7 -6 17 13 15 26 18 40 22 80 1 6 6 3 11 -5 7 -11
10 -11 10 -2 0 7 16 36 35 65 19 28 35 57 35 63 0 6 9 19 20 29 11 10 20 25
20 33 0 9 14 40 31 70 17 30 29 55 27 57 -2 1 -20 -9 -40 -23z m-118 -232 c0
-5 -2 -10 -4 -10 -3 0 -8 5 -11 10 -3 6 -1 10 4 10 6 0 11 -4 11 -10z"/>
<path d="M2517 3403 c-12 -12 -7 -22 8 -17 8 4 15 10 15 15 0 11 -14 12 -23 2z"/>
<path d="M1915 3380 c-3 -5 -1 -10 4 -10 6 0 11 5 11 10 0 6 -2 10 -4 10 -3 0
-8 -4 -11 -10z"/>
<path d="M1311 3365 c0 -12 -5 -25 -10 -30 -10 -10 -41 -111 -41 -129 0 -6 8
4 16 21 9 18 21 30 26 27 6 -4 8 2 4 14 -4 12 -2 31 4 42 6 12 9 33 7 48 -3
19 -4 21 -6 7z"/>
<path d="M1315 3301 c-3 -5 -1 -12 5 -16 5 -3 10 1 10 9 0 18 -6 21 -15 7z"/>
<path d="M2500 3251 c0 -6 4 -13 10 -16 6 -3 7 1 4 9 -7 18 -14 21 -14 7z"/>
<path d="M1290 3190 c0 -5 5 -10 10 -10 6 0 10 5 10 10 0 6 -4 10 -10 10 -5 0
-10 -4 -10 -10z"/>
<path d="M1240 3160 c-6 -12 -9 -24 -7 -27 3 -2 11 5 17 17 6 12 9 24 7 27 -3
2 -11 -5 -17 -17z"/>
<path d="M2427 3122 c3 -13 1 -22 -6 -22 -6 0 -11 -7 -11 -15 0 -13 4 -12 22
5 20 19 21 21 6 37 -16 15 -17 15 -11 -5z"/>
<path d="M1207 3091 c-4 -17 -3 -21 5 -13 5 5 8 16 6 23 -3 8 -7 3 -11 -10z"/>
<path d="M2476 3091 c-4 -7 -5 -15 -2 -18 9 -9 19 4 14 18 -4 11 -6 11 -12 0z"/>
<path d="M750 3060 c-19 -16 -39 -29 -44 -30 -5 0 -25 -12 -45 -27 -53 -41
-94 -68 -113 -75 -14 -6 -15 -11 -5 -32 7 -16 18 -24 26 -21 7 3 20 -3 27 -12
13 -17 15 -17 28 1 13 16 19 17 47 7 18 -6 42 -11 54 -11 12 0 44 -9 70 -21
29 -13 60 -19 79 -17 17 3 45 2 61 -1 23 -5 34 -2 46 14 22 28 30 53 19 60 -6
4 -10 2 -10 -3 0 -5 -9 -21 -21 -36 -16 -21 -24 -24 -35 -16 -7 7 -18 9 -23 5
-6 -3 -19 3 -31 15 -11 11 -33 20 -49 20 -24 0 -30 5 -34 30 -4 19 -11 28 -20
25 -16 -7 -54 35 -54 58 0 9 4 17 8 17 5 0 6 6 3 14 -3 9 6 19 25 27 17 8 33
19 36 26 7 21 -8 15 -45 -17z"/>
<path d="M2357 3072 c-18 -20 -22 -32 -9 -32 10 1 45 50 34 50 -5 0 -16 -8
-25 -18z"/>
<path d="M362 3021 c-12 -27 -22 -55 -22 -62 1 -8 12 10 26 40 14 29 24 57 22
62 -2 5 -13 -13 -26 -40z"/>
<path d="M2445 3030 c3 -5 2 -10 -3 -10 -15 0 -10 -34 10 -59 l18 -24 0 52 c0
39 -3 51 -16 51 -8 0 -12 -4 -9 -10z"/>
<path d="M1970 3010 c0 -11 4 -20 9 -20 5 0 7 9 4 20 -3 11 -7 20 -9 20 -2 0
-4 -9 -4 -20z"/>
<path d="M2490 2951 c0 -25 6 -27 13 -6 4 8 2 17 -3 20 -6 4 -10 -3 -10 -14z"/>
<path d="M2306 2945 c-3 -8 -12 -15 -21 -15 -8 0 -15 -9 -15 -20 0 -11 -6 -20
-14 -20 -16 0 -41 -28 -33 -36 3 -4 13 1 22 10 22 22 30 20 59 -10 39 -43 64
-21 56 51 -1 11 -6 22 -11 23 -5 2 -9 10 -9 18 0 19 -26 18 -34 -1z"/>
<path d="M1960 2921 c0 -5 5 -13 10 -16 6 -3 10 -2 10 4 0 5 -4 13 -10 16 -5
3 -10 2 -10 -4z"/>
<path d="M503 2884 c3 -11 11 -44 17 -74 7 -30 21 -83 31 -118 10 -34 19 -74
19 -89 0 -27 25 -131 40 -168 5 -11 11 -34 14 -51 3 -18 8 -43 12 -58 5 -20 2
-26 -10 -26 -20 0 -21 -16 -1 -24 17 -6 20 -42 5 -49 -6 -3 -5 -4 2 -3 7 2 24
-3 38 -10 35 -18 180 -57 188 -50 5 6 -27 78 -76 171 -29 56 -118 243 -155
325 -74 166 -142 290 -124 224z"/>
<path d="M3650 2836 c0 -9 7 -12 20 -9 11 3 17 9 14 14 -8 14 -34 10 -34 -5z"/>
<path d="M718 2823 c7 -3 16 -2 19 1 4 3 -2 6 -13 5 -11 0 -14 -3 -6 -6z"/>
<path d="M3683 2779 c18 -150 40 -306 46 -317 5 -10 23 3 62 43 30 31 56 61
58 68 2 7 10 20 19 30 14 16 13 17 -21 17 -20 0 -39 5 -42 10 -3 6 -17 10 -31
10 -20 0 -24 5 -24 29 0 16 6 31 15 35 20 7 19 42 0 50 -11 4 -17 -3 -22 -24
-3 -17 -9 -30 -14 -30 -5 0 -5 7 -2 17 4 10 2 14 -4 10 -7 -4 -13 10 -17 38
-9 60 -29 72 -23 14z m44 -146 c-3 -10 -5 -4 -5 12 0 17 2 24 5 18 2 -7 2 -21
0 -30z m43 -116 c-12 -21 -26 -34 -31 -31 -14 8 -10 47 7 73 14 20 18 21 31 8
12 -12 11 -19 -7 -50z"/>
<path d="M2831 2793 c-1 -12 4 -25 9 -28 12 -7 12 2 0 30 -8 19 -9 19 -9 -2z"/>
<path d="M3261 2714 c0 -11 3 -14 6 -6 3 7 2 16 -1 19 -3 4 -6 -2 -5 -13z"/>
<path d="M845 2710 c-3 -5 -1 -10 4 -10 6 0 11 5 11 10 0 6 -2 10 -4 10 -3 0
-8 -4 -11 -10z"/>
<path d="M3816 2685 c4 -8 8 -15 10 -15 2 0 4 7 4 15 0 8 -4 15 -10 15 -5 0
-7 -7 -4 -15z"/>
<path d="M221 2584 c0 -11 3 -14 6 -6 3 7 2 16 -1 19 -3 4 -6 -2 -5 -13z"/>
<path d="M4242 2570 c0 -14 2 -19 5 -12 2 6 2 18 0 25 -3 6 -5 1 -5 -13z"/>
<path d="M202 2509 c-7 -28 -11 -72 -10 -97 1 -38 2 -41 5 -12 1 19 8 61 14
93 15 72 7 85 -9 16z"/>
<path d="M1335 2550 c-3 -5 -1 -10 4 -10 6 0 11 5 11 10 0 6 -2 10 -4 10 -3 0
-8 -4 -11 -10z"/>
<path d="M4255 2495 c20 -152 24 -219 12 -227 -9 -6 -9 -8 1 -8 6 0 12 -9 12
-21 0 -12 4 -17 11 -14 11 8 6 87 -13 210 -12 76 -33 129 -23 60z"/>
<path d="M521 2474 c0 -11 3 -14 6 -6 3 7 2 16 -1 19 -3 4 -6 -2 -5 -13z"/>
<path d="M461 2390 c2 -45 5 -50 26 -50 28 0 30 16 4 25 -23 7 -18 35 6 35 21
0 11 22 -16 31 -21 8 -22 7 -20 -41z"/>
<path d="M1180 2409 c0 -5 5 -7 10 -4 6 3 10 8 10 11 0 2 -4 4 -10 4 -5 0 -10
-5 -10 -11z"/>
<path d="M3750 2373 c0 -21 6 -58 14 -83 l13 -45 5 55 c2 30 1 59 -4 65 -4 5
-8 17 -8 27 0 10 -4 18 -10 18 -5 0 -10 -17 -10 -37z"/>
<path d="M538 2363 c-24 -6 -23 -23 2 -23 11 0 20 7 20 15 0 8 -1 14 -2 14 -2
-1 -11 -3 -20 -6z"/>
<path d="M448 2274 c-1 -31 0 -58 5 -61 6 -3 8 5 7 32 0 3 7 19 16 36 13 26
14 33 2 40 -23 15 -26 10 -30 -47z"/>
<path d="M520 2295 c0 -8 2 -15 4 -15 2 0 6 7 10 15 3 8 1 15 -4 15 -6 0 -10
-7 -10 -15z"/>
<path d="M181 2254 c0 -11 3 -14 6 -6 3 7 2 16 -1 19 -3 4 -6 -2 -5 -13z"/>
<path d="M922 2238 c-10 -30 -10 -31 3 -14 13 17 21 46 12 46 -1 0 -8 -15 -15
-32z"/>
<path d="M1775 2220 c-3 -5 1 -10 9 -10 9 0 16 5 16 10 0 6 -4 10 -9 10 -6 0
-13 -4 -16 -10z"/>
<path d="M3781 2214 c0 -11 3 -14 6 -6 3 7 2 16 -1 19 -3 4 -6 -2 -5 -13z"/>
<path d="M440 2150 c0 -5 5 -10 10 -10 6 0 10 5 10 10 0 6 -4 10 -10 10 -5 0
-10 -4 -10 -10z"/>
<path d="M1770 2149 c0 -5 5 -7 10 -4 6 3 10 8 10 11 0 2 -4 4 -10 4 -5 0 -10
-5 -10 -11z"/>
<path d="M3295 2130 c-3 -5 3 -10 15 -10 12 0 18 5 15 10 -3 6 -10 10 -15 10
-5 0 -12 -4 -15 -10z"/>
<path d="M550 2085 c1 -26 2 -28 11 -12 8 14 8 22 0 30 -8 8 -11 3 -11 -18z"/>
<path d="M3280 2079 c0 -5 5 -7 10 -4 6 3 10 8 10 11 0 2 -4 4 -10 4 -5 0 -10
-5 -10 -11z"/>
<path d="M760 1937 c0 -18 28 -42 37 -33 4 3 -3 15 -15 26 -16 15 -22 17 -22
7z"/>
<path d="M192 1910 c0 -19 2 -27 5 -17 2 9 2 25 0 35 -3 9 -5 1 -5 -18z"/>
<path d="M201 1860 c0 -8 4 -24 9 -35 5 -13 9 -14 9 -5 0 8 -4 24 -9 35 -5 13
-9 14 -9 5z"/>
<path d="M747 1833 c-4 -3 -7 -11 -7 -17 0 -6 5 -5 12 2 6 6 9 14 7 17 -3 3
-9 2 -12 -2z"/>
<path d="M231 1750 c0 -8 4 -24 9 -35 5 -13 9 -14 9 -5 0 8 -4 24 -9 35 -5 13
-9 14 -9 5z"/>
<path d="M450 1691 c0 -5 5 -13 10 -16 6 -3 10 -2 10 4 0 5 -4 13 -10 16 -5 3
-10 2 -10 -4z"/>
<path d="M252 1670 c0 -14 2 -19 5 -12 2 6 2 18 0 25 -3 6 -5 1 -5 -13z"/>
<path d="M261 1621 c-1 -32 33 -146 59 -196 12 -23 18 -29 14 -15 -7 26 -50
168 -64 210 l-8 25 -1 -24z"/>
<path d="M595 1620 c3 -5 10 -10 16 -10 5 0 9 5 9 10 0 6 -7 10 -16 10 -8 0
-12 -4 -9 -10z"/>
<path d="M3332 1529 c-1 -34 11 -29 23 9 4 15 2 22 -8 22 -9 0 -14 -11 -15
-31z"/>
<path d="M3040 1446 c0 -36 5 -68 11 -71 7 -5 5 -15 -5 -31 -18 -26 -21 -54
-6 -54 5 0 17 14 26 31 13 26 14 36 4 55 -7 13 -13 48 -13 79 0 30 -4 55 -8
55 -5 0 -9 -29 -9 -64z"/>
<path d="M250 1479 c0 -5 5 -7 10 -4 6 3 10 8 10 11 0 2 -4 4 -10 4 -5 0 -10
-5 -10 -11z"/>
<path d="M340 1376 c0 -16 58 -147 89 -202 47 -83 156 -241 192 -279 16 -17
29 -35 29 -41 0 -5 29 -39 65 -74 36 -35 65 -62 65 -59 0 4 -34 44 -75 90 -68
75 -108 130 -224 303 -40 59 -107 192 -117 230 -5 23 -24 47 -24 32z"/>
<path d="M811 1358 c0 -7 4 -22 9 -33 7 -19 8 -19 18 5 5 14 8 28 5 33 -7 12
-33 8 -32 -5z"/>
<path d="M2600 1345 c0 -8 2 -15 4 -15 2 0 6 7 10 15 3 8 1 15 -4 15 -6 0 -10
-7 -10 -15z"/>
<path d="M2560 1341 c0 -6 5 -13 10 -16 6 -3 10 1 10 9 0 9 -4 16 -10 16 -5 0
-10 -4 -10 -9z"/>
<path d="M3011 1284 c0 -11 3 -14 6 -6 3 7 2 16 -1 19 -3 4 -6 -2 -5 -13z"/>
<path d="M340 1267 c0 -14 5 -29 10 -32 7 -4 8 3 4 22 -9 38 -14 42 -14 10z"/>
<path d="M3036 1271 c-4 -7 -5 -15 -2 -18 9 -9 19 4 14 18 -4 11 -6 11 -12 0z"/>
<path d="M362 1208 c-14 -14 -16 -28 -3 -28 9 0 24 30 18 36 -2 2 -9 -2 -15
-8z"/>
<path d="M3012 1100 c0 -52 2 -58 8 -32 4 17 4 47 0 65 -6 25 -8 19 -8 -33z"/>
<path d="M1823 1065 c0 -8 4 -15 9 -15 4 0 8 7 8 15 0 8 -4 15 -8 15 -5 0 -9
-7 -9 -15z"/>
<path d="M2931 954 c0 -11 3 -14 6 -6 3 7 2 16 -1 19 -3 4 -6 -2 -5 -13z"/>
<path d="M3882 890 c-18 -29 -15 -38 4 -12 9 13 14 25 12 27 -2 2 -9 -5 -16
-15z"/>
<path d="M580 869 c0 -5 5 -7 10 -4 6 3 10 8 10 11 0 2 -4 4 -10 4 -5 0 -10
-5 -10 -11z"/>
<path d="M3822 814 c-18 -24 -29 -44 -24 -44 8 0 65 81 60 85 -2 2 -18 -17
-36 -41z"/>
<path d="M560 760 c0 -5 5 -10 11 -10 5 0 7 5 4 10 -3 6 -8 10 -11 10 -2 0 -4
-4 -4 -10z"/>
<path d="M1280 730 c0 -5 5 -10 11 -10 5 0 7 5 4 10 -3 6 -8 10 -11 10 -2 0
-4 -4 -4 -10z"/>
<path d="M3730 705 c-8 -9 -8 -15 -2 -15 12 0 26 19 19 26 -2 2 -10 -2 -17
-11z"/>
<path d="M796 696 c3 -8 13 -17 22 -21 13 -5 13 -2 -3 15 -21 24 -26 25 -19 6z"/>
<path d="M1300 685 c-14 -8 -30 -14 -37 -15 -7 0 -45 -15 -85 -34 -40 -19 -82
-37 -93 -41 -18 -6 -16 -8 14 -21 40 -17 44 -17 35 -3 -8 13 55 2 71 -12 16
-15 23 -10 30 20 6 26 13 30 43 22 1 -1 -2 -10 -8 -21 -9 -16 -8 -20 5 -20 9
0 13 5 10 10 -3 6 1 17 10 26 18 19 22 17 27 -11 4 -24 59 -48 106 -46 26 1
35 -4 39 -19 4 -16 14 -20 48 -20 25 0 50 -6 59 -15 16 -17 76 -21 76 -5 0 6
-9 10 -20 10 -11 0 -20 3 -20 8 0 7 -29 21 -72 35 -11 4 -15 12 -12 22 4 9 1
15 -8 15 -7 0 -36 19 -63 43 -60 51 -111 87 -122 87 -4 -1 -19 -7 -33 -15z"/>
<path d="M867 635 c10 -13 25 -27 33 -30 8 -4 2 8 -14 24 -36 37 -43 40 -19 6z"/>
<path d="M1060 485 c0 -2 30 -22 68 -44 37 -22 82 -50 100 -62 17 -11 32 -16
32 -10 0 6 -15 18 -32 27 -18 9 -59 34 -90 55 -52 35 -78 47 -78 34z"/>
<path d="M3110 419 l-25 -20 35 17 c43 20 47 24 29 24 -8 0 -25 -10 -39 -21z"/>
<path d="M1290 350 c8 -5 22 -10 30 -10 13 0 13 1 0 10 -8 5 -22 10 -30 10
-13 0 -13 -1 0 -10z"/>
<path d="M2968 353 c7 -3 16 -2 19 1 4 3 -2 6 -13 5 -11 0 -14 -3 -6 -6z"/>
<path d="M1346 330 c12 -12 114 -52 114 -46 0 5 -109 56 -118 56 -3 0 -1 -5 4
-10z"/>
<path d="M2890 320 c-9 -6 -10 -10 -3 -10 6 0 15 5 18 10 8 12 4 12 -15 0z"/>
<path d="M1480 277 c8 -8 193 -68 197 -63 4 4 -127 51 -172 62 -16 4 -28 4
-25 1z"/>
<path d="M2758 263 c7 -3 16 -2 19 1 4 3 -2 6 -13 5 -11 0 -14 -3 -6 -6z"/>
<path d="M2665 240 c-38 -10 -62 -18 -52 -19 25 -1 110 20 122 30 5 5 7 8 5 8
-3 -1 -36 -9 -75 -19z"/>
<path d="M1710 201 c8 -4 58 -14 110 -22 112 -16 513 -17 575 0 33 8 26 9 -40
4 -147 -12 -454 -6 -550 11 -101 18 -117 19 -95 7z"/>
<path d="M2470 200 c-12 -8 -10 -9 10 -9 14 1 39 5 55 9 29 7 29 8 -10 9 -22
0 -47 -4 -55 -9z"/>
</g>
</svg>
